<svg viewBox="0 0 200 200" xmlns="http://www.w3.org/2000/svg">
  <path d="M 30,150 
           C 10,150 0,120 20,90   /* Bottom-left curve, then up */
           C 35,65 60,55 100,55  /* Top-left curve towards center */
           C 140,55 165,65 180,90
           C 200,120 190,150 170,150 Z"
        fill="#BCA9CC"/>
    <path d="M 60,100
           C 40,105 30,80 50,50
           C 65,25 90,15 100,15  /* Curve across the top of the head */
           C 110,15 135,25 150,50 /* Curve down for right top of head to cheek */
           C 170,80 160,105 140,100 /* Curve for right cheek */
           C 130,110 115,115 100,115 /* Curve for bottom of the snout */
           C 85,115 70,110 60,100 Z"
        fill="#BCA9CC"/>
    <circle cx="65" cy="40" r="18" fill="#BCA9CC"/> <circle cx="135" cy="40" r="18" fill="#BCA9CC"/> <circle cx="68" cy="43" r="10" fill="#8D7A9E"/> <circle cx="132" cy="43" r="10" fill="#8D7A9E"/> <circle cx="80" cy="65" r="8" fill="#4A3F55"/> <circle cx="120" cy="65" r="8" fill="#4A3F55"/> <circle cx="83" cy="62" r="3" fill="#F5F0FA"/> <circle cx="117" cy="62" r="3" fill="#F5F0FA"/> <ellipse cx="85" cy="85" rx="7" ry="5" fill="#8D7A9E" transform="rotate(-10 85 85)"/> <ellipse cx="115" cy="85" rx="7" ry="5" fill="#8D7A9E" transform="rotate(10 115 85)"/> <path d="M 85,100 
           Q 100,108 115,100"
        stroke="#8D7A9E" stroke-width="3.5" fill="none" stroke-linecap="round"/>

  <rect x="92" y="100" width="6" height="8" fill="#F5F0FA" rx="2"/> <rect x="102" y="100" width="6" height="8" fill="#F5F0FA" rx="2"/>
</svg>